<svg width="76" height="76" viewBox="0 0 76 76" fill="none" xmlns="http://www.w3.org/2000/svg">
<path d="M61.0648 32.5648L65.167 36.667C67.4114 38.9114 71.2485 37.3216 71.2485 34.148V16.625L61.0648 32.5648ZM61.0648 32.5648L60.3577 31.8577L59.6505 32.5648L46.1077 46.1077C44.2537 47.9631 41.2463 47.9631 39.3909 46.1077L29.2071 35.9239L29.2072 35.9238L28.5 35.2168L27.7929 35.9239L27.793 35.924L21.663 42.0553L61.0648 32.5648ZM8.5 57V58H9.5H73.625C74.3849 58 75 58.6151 75 59.375V64.125C75 64.8849 74.3849 65.5 73.625 65.5H4.75C2.67939 65.5 1 63.8206 1 61.75V11.875C1 11.1151 1.6151 10.5 2.375 10.5H7.125C7.8849 10.5 8.5 11.1151 8.5 11.875V57ZM54.348 25.8479L55.055 25.1408L54.348 24.4338L49.5386 19.6244C47.9243 18.01 49.0677 15.25 51.3505 15.25H68.875C69.6351 15.25 70.2494 15.8651 70.2485 16.6239V16.625V34.148C70.2485 36.4308 67.4885 37.5743 65.8741 35.9599L61.0648 31.1505L60.3577 30.4434L59.6505 31.1505L45.4005 45.4005L45.4003 45.4008C43.937 46.8652 41.5631 46.8657 40.098 45.4005L29.2071 34.5097L28.4999 33.8025L27.7928 34.5098L20.9559 41.3482C20.4187 41.8854 19.5481 41.8854 19.0109 41.3482L15.6533 37.9906C15.1161 37.4533 15.1161 36.5828 15.6533 36.0456L25.8495 25.8495L25.8497 25.8492C27.313 24.3848 29.6869 24.3843 31.152 25.8495L42.0429 36.7403L42.75 37.4475L43.4572 36.7403L54.348 25.8479Z" fill="white" stroke="black" stroke-width="2"/>
</svg>
