<svg width="54" height="71" viewBox="0 0 54 71" fill="none" xmlns="http://www.w3.org/2000/svg">
<g clip-path="url(#clip0)">
<rect width="53.25" height="71" fill="white"/>
<path d="M15.3873 55.6253C18.0112 59.3633 21.0936 63.7542 24.7117 68.9995C25.6363 70.3336 27.6141 70.3336 28.5386 68.999L15.3873 55.6253ZM15.3873 55.6253C10.681 48.921 7.44935 44.3173 5.24555 40.6529M15.3873 55.6253L5.24555 40.6529M5.24555 40.6529C3.54189 37.8201 2.49031 35.6071 1.85803 33.472M5.24555 40.6529L1.85803 33.472M1.85803 33.472C1.22803 31.3447 1 29.2463 1 26.625M1.85803 33.472L1 26.625M1 26.625C1 12.4727 12.4727 1 26.625 1M1 26.625L26.625 1M26.625 1C40.7773 1 52.25 12.4727 52.25 26.625M26.625 1L52.25 26.625M52.25 26.625C52.25 29.2463 52.022 31.3447 51.392 33.472M52.25 26.625L51.392 33.472M51.392 33.472C50.7597 35.6071 49.7081 37.8201 48.0045 40.6529M51.392 33.472L48.0045 40.6529M48.0045 40.6529C45.8007 44.3173 42.569 48.921 37.8627 55.6253M48.0045 40.6529L37.8627 55.6253M37.8627 55.6253C35.239 59.363 32.1569 63.7536 28.5391 68.9983L37.8627 55.6253ZM26.625 38.7188C33.3042 38.7188 38.7188 33.3042 38.7188 26.625C38.7188 19.9458 33.3042 14.5312 26.625 14.5312C19.9458 14.5312 14.5312 19.9458 14.5312 26.625C14.5312 33.3042 19.9458 38.7188 26.625 38.7188Z" fill="white" stroke="black" stroke-width="2"/>
</g>
<defs>
<clipPath id="clip0">
<rect width="53.25" height="71" fill="white"/>
</clipPath>
</defs>
</svg>
