<svg width="61" height="70" viewBox="0 0 61 70" fill="none" xmlns="http://www.w3.org/2000/svg">
<g clip-path="url(#clip0)">
<path d="M46.5357 17.2857C46.5357 26.2811 39.2454 33.5714 30.25 33.5714C21.2546 33.5714 13.9643 26.2811 13.9643 17.2857C13.9643 8.29034 21.2546 1 30.25 1C39.2454 1 46.5357 8.29034 46.5357 17.2857ZM30.25 42.0536C33.8329 42.0536 37.2398 41.2712 40.3112 39.8929H42.35C51.818 39.8929 59.5 47.5748 59.5 57.0429V62.6607C59.5 65.6871 57.0443 68.1429 54.0179 68.1429H6.48214C3.45574 68.1429 1 65.6871 1 62.6607V57.0429C1 47.5748 8.68197 39.8929 18.15 39.8929H20.1897C23.2718 41.2706 26.6658 42.0536 30.25 42.0536Z" fill="white" stroke="black" stroke-width="2"/>
</g>
<defs>
<clipPath id="clip0">
<rect width="60.5" height="69.1429" fill="white"/>
</clipPath>
</defs>
</svg>
