<svg width="53" height="66" viewBox="0 0 53 66" fill="none" xmlns="http://www.w3.org/2000/svg">
<g clip-path="url(#clip0)">
<path d="M25.4995 2.09201L25.4994 2.09202L25.5014 2.1041L25.5022 2.10867C25.557 2.43037 26.0655 5.41777 26.5612 8.86911C27.0634 12.3647 27.5385 16.2451 27.5385 18.3459C27.5385 24.6092 24.2406 28.9727 19.4175 30.733L18.7217 30.9869L18.7618 31.7265L20.4051 62.0582C20.4052 62.0587 20.4052 62.0591 20.4052 62.0595C20.4647 63.2373 19.5271 64.2305 18.3462 64.2305H10.1923C9.01897 64.2305 8.0739 63.2448 8.13326 62.0593C8.13328 62.0588 8.13331 62.0583 8.13333 62.0579L9.77666 31.7265L9.81676 30.9863L9.12023 30.7327C4.28657 28.9729 1 24.5981 1 18.3459C1 16.2387 1.47512 12.3583 1.97721 8.86439C2.47047 5.43199 2.97636 2.46043 3.03539 2.11371L3.03702 2.1041L3.0371 2.10411L3.039 2.09201C3.08273 1.81464 3.25684 1.55835 3.62748 1.34588C4.01033 1.12642 4.54713 0.994606 5.1223 0.999719C5.69801 1.00484 6.22309 1.1462 6.59074 1.37427C6.92146 1.57943 7.10217 1.83354 7.15385 2.14556V20.0659V20.2505L7.21979 20.423C7.347 20.7557 7.58836 20.9516 7.75553 21.0557C7.92912 21.1639 8.11072 21.2289 8.26128 21.2702C8.56446 21.3535 8.8998 21.3832 9.1989 21.3812C9.49759 21.3792 9.82954 21.3451 10.1259 21.2596C10.272 21.2175 10.4537 21.1504 10.6263 21.0373C10.79 20.9302 11.0493 20.7122 11.155 20.3366L11.1847 20.2308L11.1908 20.1211C11.2718 18.657 11.4886 14.8346 11.7015 11.0787C11.9405 6.86486 12.1747 2.73476 12.2071 2.11276C12.2661 1.82381 12.45 1.57373 12.7942 1.37006C13.1706 1.14741 13.6981 1.0125 14.2676 1.0125C14.8373 1.0125 15.3634 1.14745 15.7376 1.36943C16.0824 1.57398 16.264 1.82507 16.3196 2.11592L16.3207 2.13385L16.3296 2.28297C16.337 2.40818 16.3471 2.58262 16.3596 2.8003C16.3847 3.23557 16.4193 3.84243 16.4607 4.57134C16.5435 6.0291 16.6534 7.97422 16.768 10.0094C16.9974 14.08 17.2458 18.51 17.3349 20.1211L17.341 20.2308L17.3708 20.3366C17.477 20.7143 17.7386 20.9323 17.902 21.0387C18.0749 21.1513 18.2568 21.218 18.403 21.26C18.6997 21.3451 19.0324 21.3792 19.3316 21.3812C19.631 21.3832 19.9672 21.3536 20.2706 21.27C20.421 21.2286 20.6042 21.1629 20.7791 21.0525C20.9477 20.946 21.1933 20.7432 21.3149 20.3987L21.3719 20.2372V20.0659V2.14604C21.4232 1.83913 21.6027 1.58618 21.9355 1.38056C22.3051 1.15215 22.8328 1.01025 23.4109 1.00449C23.9885 0.998724 24.5271 1.12988 24.9109 1.34879C25.2825 1.56066 25.4559 1.81602 25.4995 2.09201ZM42.6705 38.4164L42.714 37.8796L42.2899 37.5479C37.4623 33.7722 34.9746 29.6178 34.0513 25.5457C33.1255 21.4627 33.7529 17.3734 35.3098 13.7111C36.8686 10.0442 39.3458 6.84071 42.0558 4.5622C44.7882 2.2648 47.6431 0.999759 49.9423 0.999759C51.0818 0.999759 52 1.92529 52 3.05745V62.1728C52 63.315 51.0845 64.2305 49.9423 64.2305H42.8077C41.6067 64.2305 40.6565 63.1999 40.7591 62.0034L40.7595 61.9988L42.6705 38.4164Z" fill="white" stroke="black" stroke-width="2"/>
</g>
<defs>
<clipPath id="clip0">
<rect width="53" height="65.2308" fill="white"/>
</clipPath>
</defs>
</svg>
